<svg viewBox="0 0 24 24" fill="none" xmlns="http://www.w3.org/2000/svg">
<path fill-rule="evenodd" clip-rule="evenodd" d="M14.6898 5.71886C15.3089 4.98411 15.6195 4.19029 15.6195 3.3401V3.34009C15.6195 3.22732 15.6143 3.11366 15.6017 3C15.1704 3.02238 14.7119 3.15304 14.2271 3.38931C13.7412 3.62916 13.3406 3.92983 13.0255 4.29144C12.3946 5.00562 12.0393 5.8791 12.0393 6.69528C12.0393 6.80809 12.0465 6.91544 12.059 7.01743C13.039 7.09708 13.9427 6.59234 14.6898 5.71886ZM17.9853 17.8914C18.3378 17.3887 18.6422 16.842 18.8993 16.2481C19.0052 15.9963 19.1049 15.7339 19.1994 15.46C18.7639 15.2775 18.3725 15.0204 18.022 14.6877C17.2486 13.971 16.8551 13.0684 16.8436 11.9837C16.831 10.5911 17.4637 9.50551 18.7429 8.73046C18.0283 7.71469 16.9537 7.15087 15.5235 7.03545C14.9957 6.99064 14.3514 7.10439 13.5879 7.37911C12.7807 7.67534 12.3045 7.82393 12.164 7.82393C11.976 7.82393 11.5474 7.69685 10.8798 7.44627C10.2103 7.19652 9.67155 7.06944 9.26073 7.06944C8.50991 7.08193 7.81272 7.27711 7.16747 7.66012C6.52223 8.04314 6.00668 8.56487 5.61915 9.22628C5.12606 10.0497 4.87988 11.0323 4.87988 12.1716C4.87988 13.1662 5.06247 14.1935 5.4267 15.2544C5.7668 16.2366 6.20091 17.0981 6.72895 17.841C7.2211 18.5367 7.63192 19.0278 7.96037 19.3143C8.47497 19.7928 8.99052 20.0205 9.50774 19.9985C9.84784 19.9869 10.2927 19.8705 10.8448 19.6469C11.3962 19.4245 11.9116 19.3143 12.3922 19.3143C12.8505 19.3143 13.3516 19.4245 13.897 19.6469C14.4405 19.8705 14.9075 19.9806 15.2947 19.9806C15.8341 19.968 16.3378 19.7466 16.8079 19.3143C17.1112 19.0509 17.5047 18.5766 17.9853 17.8914Z" fill="white"/>
</svg>
