<svg viewBox="0 0 24 24" fill="none" xmlns="http://www.w3.org/2000/svg">
<g clip-path="url(#clip0_2719_28656)">
<path fill-rule="evenodd" clip-rule="evenodd" d="M6.77723 5.22233C6.34765 4.79275 5.65117 4.79275 5.2216 5.22233C4.79202 5.65191 4.79202 6.34839 5.2216 6.77796L5.99941 6.00015C5.2216 6.77796 5.22162 6.77799 5.22168 6.77805L5.22193 6.7783L5.22293 6.7793L5.22692 6.78328L5.24272 6.79909L5.30488 6.86124L5.54501 7.10138L6.43759 7.99395L9.46424 11.0206L10.4438 12.0001L5.2216 17.2223C4.79202 17.6519 4.79202 18.3484 5.2216 18.778C5.65117 19.2075 6.34765 19.2075 6.77723 18.778L11.9994 13.5558L17.2216 18.778C17.6512 19.2075 18.3477 19.2075 18.7772 18.778C19.2068 18.3484 19.2068 17.6519 18.7772 17.2223L13.555 12.0001L18.7772 6.77796C19.2068 6.34839 19.2068 5.65191 18.7772 5.22233C18.3477 4.79275 17.6512 4.79275 17.2216 5.22233L11.9994 10.4445L11.0199 9.46497L7.99322 6.43832L7.10065 5.54574L6.86051 5.30561L6.79836 5.24345L6.78255 5.22765L6.77857 5.22366L6.77757 5.22266L6.77732 5.22241C6.77726 5.22236 6.77723 5.22233 5.99941 6.00015L6.77723 5.22233Z" />
</g>
<defs>
<clipPath id="clip0_2719_28656">
<rect width="24" height="24" fill="white"/>
</clipPath>
</defs>
</svg>
