<svg viewBox="0 0 24 24" fill="none" xmlns="http://www.w3.org/2000/svg">
<g clip-path="url(#clip0_3119_24643)">
<path fill-rule="evenodd" clip-rule="evenodd" d="M11.964 13.5197L8.37782 17.1059C7.94824 17.5355 7.25176 17.5355 6.82218 17.1059C6.39261 16.6763 6.39261 15.9798 6.82218 15.5502L10.4084 11.964L9.90802 11.4637L7.70662 9.26229L7.05741 8.61308L6.88276 8.43842L6.83755 8.39321L6.82605 8.38172L6.82315 8.37882L6.82243 8.37809L6.82224 8.37791L7.6 7.60003L8.37788 6.82228L8.37806 6.82246L8.37879 6.82319L8.38169 6.82608L8.39318 6.83758L8.43839 6.88279L8.61305 7.05745L9.26225 7.70665L11.4637 9.90805L11.964 10.4084L15.5502 6.82218C15.9798 6.39261 16.6763 6.39261 17.1059 6.82218C17.5355 7.25176 17.5355 7.94824 17.1059 8.37782L13.5196 11.964L17.1059 15.5503C17.5355 15.9799 17.5355 16.6763 17.1059 17.1059C16.6763 17.5355 15.9798 17.5355 15.5502 17.1059L11.964 13.5197ZM8.37782 6.82222C7.94824 6.39264 7.25176 6.39264 6.82218 6.82222C6.39261 7.25179 6.39261 7.94827 6.82218 8.37785L7.6 7.60003L8.37782 6.82222Z" />
</g>
<defs>
<clipPath id="clip0_3119_24643">
<rect width="24" height="24" fill="white"/>
</clipPath>
</defs>
</svg>
