<svg viewBox="0 0 24 24" fill="none" xmlns="http://www.w3.org/2000/svg">
<path d="M9.25 12.7915V20.4C9.25 20.7314 9.51863 21 9.85 21H12.025C12.3564 21 12.625 20.7314 12.625 20.4V12.7915H15.4C15.7314 12.7915 16 12.5229 16 12.1915V9.79436C16 9.46299 15.7314 9.19436 15.4 9.19436H12.625V7.79624C12.625 7.13676 13.1312 6.59718 13.75 6.59718H15.4C15.7314 6.59718 16 6.32855 16 5.99718V3.6C16 3.26863 15.7314 3 15.4 3H13.1875C11.0163 3 9.25 4.88252 9.25 7.19671V9.19436H7.6C7.26863 9.19436 7 9.46299 7 9.79436V12.1915C7 12.5229 7.26863 12.7915 7.6 12.7915H9.25Z" fill="white"/>
</svg>
