<svg viewBox="0 0 24 24" fill="none" xmlns="http://www.w3.org/2000/svg">
<path d="M12.0066 2.5C6.14826 2.5 1.39941 6.25424 1.39941 10.8855C1.39941 13.9001 3.41171 16.5416 6.43126 18.0197C6.20925 18.8484 5.62787 21.0206 5.51138 21.4855C5.36796 22.0625 5.72294 22.0548 5.95538 21.8993C6.13782 21.7778 8.86228 19.926 10.0377 19.1264C10.6757 19.221 11.3334 19.271 12.0066 19.271C17.8649 19.271 22.6137 15.5162 22.6137 10.8855C22.6137 6.25424 17.8643 2.5 12.0066 2.5Z" fill="#391B1B"/>
<path d="M7.73174 8.64648H4.68344C4.3967 8.64648 4.16504 8.87868 4.16504 9.16488C4.16504 9.45108 4.39724 9.68328 4.68344 9.68328H5.67434V13.3348C5.67434 13.4676 5.72834 13.5983 5.82338 13.6928C5.91626 13.7867 6.0464 13.8407 6.17978 13.8407H6.29048C6.42332 13.8407 6.55292 13.7867 6.64634 13.6928C6.74138 13.5983 6.79538 13.4681 6.79538 13.3348V9.68328H7.7312C8.01794 9.68328 8.25014 9.45108 8.25014 9.16488C8.25068 8.87868 8.01848 8.64648 7.73174 8.64648Z" fill="#FAE300"/>
<path d="M15.0574 12.8654H13.6399V9.13617C13.6399 8.82513 13.3883 8.57349 13.0778 8.57349C12.7673 8.57349 12.5156 8.82513 12.5156 9.13617V13.1559C12.5156 13.1872 12.5194 13.2164 12.5243 13.2461C12.5189 13.2753 12.5156 13.3055 12.5156 13.3357C12.5156 13.596 12.7257 13.8066 12.986 13.8066H15.0574C15.3182 13.8066 15.5277 13.596 15.5277 13.3357C15.5277 13.0765 15.3177 12.8654 15.0574 12.8654Z" fill="#FAE300"/>
<path d="M19.5871 13.0366L18.0076 10.9619L19.4349 9.53415C19.6282 9.34137 19.6282 9.02763 19.4349 8.83431C19.2415 8.64099 18.9283 8.64099 18.7345 8.83431L16.9676 10.6012V9.13617C16.9676 8.82513 16.716 8.57349 16.4055 8.57349C16.095 8.57349 15.8428 8.82513 15.8428 9.13617V13.2796C15.8428 13.5906 16.0944 13.8423 16.4055 13.8423C16.716 13.8423 16.9676 13.5912 16.9676 13.2796V12.0014L17.2889 11.6806L18.7831 13.6414C18.9494 13.8633 19.2653 13.9092 19.4872 13.7413C19.7092 13.5744 19.754 13.2585 19.5871 13.0366Z" fill="#FAE300"/>
<path d="M12.0697 13.394L10.5507 9.23816C10.5507 9.23816 10.5469 9.23492 10.5458 9.2333C10.4486 8.98004 10.1684 8.7959 9.83413 8.7959C9.46315 8.7959 9.15643 9.0227 9.09541 9.31916C9.08515 9.3413 9.07489 9.36344 9.06625 9.3872L7.5726 13.394C7.48026 13.657 7.6185 13.9443 7.8804 14.0366C8.14284 14.1289 8.43067 13.9907 8.52301 13.7283L8.78167 12.9906H10.8607L11.1188 13.7283C11.2111 13.9907 11.499 14.1289 11.7614 14.0366C12.0238 13.9448 12.1621 13.657 12.0697 13.394ZM9.11161 12.0489L9.81037 10.0552C9.81847 10.0552 9.82495 10.0573 9.83305 10.0573L10.5313 12.0489H9.11161Z" fill="#FAE300"/>
</svg>
